{"title":"The Night Of S01E07 1080p HDTV HEVC DD5.1 x265","uid":15635551,"size":957656674,"categoryP":"video","categoryS":"hd___tv_shows","magnet":"?xt=urn:btih:0972ae1af2793695506dadb939491eedbf0f7efd&amp;dn=The+Night+Of+S01E07+1080p+HDTV+HEVC+DD5.1+x265&amp;tr=udp%3A%2F%2Ftracker.leechers-paradise.org%3A6969&amp;tr=udp%3A%2F%2Fzer0day.ch%3A1337&amp;tr=udp%3A%2F%2Fopen.demonii.com%3A1337&amp;tr=udp%3A%2F%2Ftracker.coppersurfer.tk%3A6969&amp;tr=udp%3A%2F%2Fexodus.desync.com%3A6969","seeders":49,"leechers":1,"uploader":"nayhtut","files":1,"time":1471984533,"description":"[Screenshots]\r\n \nhttps://s15.postimg.org/5rfiyoeyj/The_Night_Of_S01_E07_1080p_HDTV_HEVC_DD5_1_x265_0.jpg \nhttps://s15.postimg.org/xstkcdk8r/The_Night_Of_S01_E07_1080p_HDTV_HEVC_DD5_1_x265_0.jpg \nhttps://s15.postimg.org/iy4yy7anv/The_Night_Of_S01_E07_1080p_HDTV_HEVC_DD5_1_x265_0.jpg\r\n\r\n\r\nSource: The Night Of S01E07 1080i HDTV H.264-PSiG (1.32 GB)\r\n\r\n__--__--__--__--__--__--__--__--__--__--__--__--__--\r\n\r\n\r\nComplete name                            : The.Night.Of.S01E07.1080p.HDTV.HEVC.DD5.1.x265.mkv\r\nFormat                                   : Matroska\r\nFormat version                           : Version 4 / Version 2\r\nFile size                                : 913 MiB\r\nDuration                                 : 53 min\r\nOverall bit rate                         : 2 381 kb/s\r\nEncoded date                             : UTC 2016-08-23 13:45:07\r\nWriting application                      : mkvmerge v9.3.1 ('Mask Machine') 32bit\r\nWriting library                          : libebml v1.3.4 + libmatroska v1.4.5\r\n\r\nVideo\r\n\r\nID                                       : 1\r\nFormat                                   : HEVC\r\nFormat/Info                              : High Efficiency Video Coding\r\nFormat profile                           :   @Main\r\nCodec ID                                 : V_MPEGH/ISO/HEVC\r\nDuration                                 : 53 min\r\nBit rate                                 : 1 995 kb/s\r\nWidth                                    : 1 920 pixels\r\nHeight                                   : 1 080 pixels\r\nDisplay aspect ratio                     : 16:9\r\nFrame rate mode                          : Constant\r\nFrame rate                               : 25.000 FPS\r\nColor space                              : YUV\r\nChroma subsampling                       : 4:2:0\r\nBit depth                                : 8 bits\r\nBits/(Pixel*Frame)                       : 0.038\r\nStream size                              : 765 MiB (84%)\r\nTitle                                    : The.Night.Of.S01E07.1080p.HDTV.HEVC.2CH.x265\r\nWriting library                          : x265 2.0+1-6a9b6a828f79:[Linux][GCC 5.4.0][64 bit] 8bit\r\nLanguage                                 : English\r\nDefault                                  : Yes\r\nForced                                   : No\r\n\r\nAudio\r\n\r\nID                                       : 2\r\nFormat                                   : AC-3\r\nFormat/Info                              : Audio Coding 3\r\nMode extension                           : CM (complete main)\r\nFormat settings, Endianness              : Big\r\nCodec ID                                 : A_AC3\r\nDuration                                 : 53 min\r\nBit rate mode                            : Constant\r\nBit rate                                 : 384 kb/s\r\nChannel(s)                               : 6 channels\r\nChannel positions                        : Front: L C R, Side: L R, LFE\r\nSampling rate                            : 48.0 kHz\r\nFrame rate                               : 31.250 FPS (1536 spf)\r\nCompression mode                         : Lossy\r\nStream size                              : 147 MiB (16%)\r\nTitle                                    : AC-3 5.1\r\nLanguage                                 : English\r\nDefault                                  : Yes\r\nForced                                   : No\r\n\r\nText #1\r\n\r\nID                                       : 3\r\nFormat                                   : UTF-8\r\nCodec ID                                 : S_TEXT/UTF8\r\nCodec ID/Info                            : UTF-8 Plain Text\r\nDuration                                 : 51 min\r\nBit rate                                 : 56 b/s\r\nCount of elements                        : 726\r\nStream size                              : 21.5 KiB (0%)\r\nTitle                                    : English\r\nLanguage                                 : English\r\nDefault                                  : Yes\r\nForced                                   : No\r\n\r\nText #2\r\n\r\nID                                       : 4\r\nFormat                                   : UTF-8\r\nCodec ID                                 : S_TEXT/UTF8\r\nCodec ID/Info                            : UTF-8 Plain Text\r\nDuration                                 : 52 min\r\nBit rate                                 : 61 b/s\r\nCount of elements                        : 820\r\nStream size                              : 23.8 KiB (0%)\r\nTitle                                    : English SDH\r\nLanguage                                 : English\r\nDefault                                  : No\r\nForced                                   : No\r\n\r\nIMDb: http://www.imdb.com/title/tt2401256\r\n\r\n\r\n__--__--__--__--__--__--__--__--__--__--__--__--__--\r\n\r\n\r\nAfter adding torrent with magnet link,\r\n\r\nplease add this  following trackers list to the torrent for better seeds.\r\n\r\n\r\nudp://tracker.coppersurfer.tk:6969/announce\r\n\r\nudp://tracker.opentrackr.org:1337/announce\r\n \nhttp://tracker.baravik.org:6970/announce\r\n \nhttp://tracker2.wasabii.com.tw:6969/announce\r\n\r\nudp://9.rarbg.me:2710/announce\r\n\r\n\r\n__--__--__--__--__--__--__--__--__--__--__--__--__--\r\n\r\n\r\nEnjoy!","torrent":{"xt":"urn:btih:0972ae1af2793695506dadb939491eedbf0f7efd","amp;dn":"The+Night+Of+S01E07+1080p+HDTV+HEVC+DD5.1+x265","amp;tr":["udp%3A%2F%2Ftracker.leechers-paradise.org%3A6969","udp%3A%2F%2Fzer0day.ch%3A1337","udp%3A%2F%2Fopen.demonii.com%3A1337","udp%3A%2F%2Ftracker.coppersurfer.tk%3A6969","udp%3A%2F%2Fexodus.desync.com%3A6969"],"infoHash":"0972ae1af2793695506dadb939491eedbf0f7efd","infoHashBuffer":{"type":"Buffer","data":[9,114,174,26,242,121,54,149,80,109,173,185,57,73,30,237,191,15,126,253]},"announce":[],"urlList":[]}}